<svg width="134" height="134" viewBox="0 0 134 134" fill="none" xmlns="http://www.w3.org/2000/svg">
<path d="M22.7057 0.5H111.295C123.549 0.500045 133.483 10.4343 133.483 22.6885V111.277C133.483 123.532 123.549 133.466 111.295 133.466H22.7057C10.4515 133.466 0.517233 123.532 0.517212 111.277V22.6885L0.524048 22.1152C0.827974 10.1258 10.643 0.5 22.7057 0.5Z" fill="white" stroke="#033FCF"/>
<path d="M124.536 60.9715L93.0374 106.391C90.3065 110.333 84.5787 110.59 81.4958 106.915L71.4226 94.8922L62.9725 106.477C59.8896 110.693 53.5777 110.642 50.5806 106.365L34.376 83.2991L19.8201 82.8955C12.8385 82.698 8.90537 74.7974 12.9501 69.1124C13.9291 67.7384 14.908 66.3644 15.8784 64.9904C18.1884 61.7529 20.4899 58.5154 22.8 55.2693C25.4965 51.4736 28.2015 47.6779 30.898 43.8908C32.9676 40.9883 35.0458 38.0857 37.0982 35.1745C38.6097 33.0448 40.0867 30.2882 42.766 29.4896C45.1705 28.7682 47.7467 29.189 50.2113 29.1804C54.3763 29.1632 58.5327 29.146 62.6976 29.1203C66.4246 29.1031 70.1516 29.0859 73.87 29.0687C74.8662 29.0687 75.8452 28.9228 76.7812 29.3006C77.2278 29.481 77.6572 29.6957 78.0694 29.9447C79.2201 30.6489 80.1991 31.6365 80.7573 32.8731C81.5731 34.6765 81.6675 37.2871 80.5512 38.9874C79.7783 40.1639 78.9711 41.3318 78.1896 42.4997C76.3862 45.2047 74.5828 47.9012 72.788 50.6063L72.1783 51.5252H55.862L62.732 40.3614H49.8507L28.3819 71.2765H42.1219L48.992 60.9715H65.3083L50.7095 81.5816L56.7207 91.0278L78.1896 60.9715H94.5059L79.9071 82.4403L86.7771 91.8866L108.246 60.9715H124.562H124.536Z" fill="#012F9E"/>
</svg>
