<svg width="250" height="194" viewBox="0 0 250 194" fill="none" xmlns="http://www.w3.org/2000/svg">
<path d="M169.295 0H80.7056C68.1753 0 58.0173 10.1579 58.0173 22.6883V111.277C58.0173 123.808 68.1753 133.966 80.7056 133.966H169.295C181.825 133.966 191.983 123.808 191.983 111.277V22.6883C191.983 10.1579 181.825 0 169.295 0Z" fill="white"/>
<path d="M182.537 60.9715L151.038 106.391C148.307 110.333 142.579 110.59 139.496 106.915L129.423 94.8922L120.973 106.477C117.89 110.693 111.578 110.642 108.581 106.365L92.3762 83.2991L77.8204 82.8955C70.8387 82.698 66.9056 74.7974 70.9503 69.1124C71.9293 67.7384 72.9082 66.3644 73.8786 64.9904C76.1887 61.7529 78.4902 58.5154 80.8002 55.2693C83.4967 51.4736 86.2017 47.6779 88.8982 43.8908C90.9678 40.9883 93.0461 38.0857 95.0985 35.1745C96.6099 33.0448 98.0869 30.2882 100.766 29.4896C103.171 28.7682 105.747 29.189 108.212 29.1804C112.377 29.1632 116.533 29.146 120.698 29.1203C124.425 29.1031 128.152 29.0859 131.87 29.0687C132.866 29.0687 133.845 28.9228 134.781 29.3006C135.228 29.481 135.657 29.6957 136.07 29.9447C137.22 30.6489 138.199 31.6365 138.757 32.8731C139.573 34.6765 139.668 37.2871 138.551 38.9874C137.779 40.1639 136.971 41.3318 136.19 42.4997C134.386 45.2047 132.583 47.9012 130.788 50.6063L130.179 51.5252H113.862L120.732 40.3614H107.851L86.3821 71.2765H100.122L106.992 60.9715H123.309L108.71 81.5816L114.721 91.0278L136.19 60.9715H152.506L137.907 82.4403L144.777 91.8866L166.246 60.9715H182.563H182.537Z" fill="#012F9E"/>
<path d="M18.0338 189.648C10.2106 189.648 3.86439 183.301 3.86439 175.478C3.86439 167.655 10.2106 161.309 18.0338 161.309C24.672 161.309 30.2453 165.877 31.7739 172.043H35.7327C34.1354 163.722 26.8189 157.444 18.0338 157.444C8.07228 157.444 0 165.517 0 175.478C0 185.44 8.07228 193.512 18.0338 193.512C26.8189 193.512 34.1354 187.234 35.7327 178.913H31.7739C30.2453 185.079 24.672 189.648 18.0338 189.648Z" fill="white"/>
<path d="M76.4291 175.049C76.4291 164.855 68.1593 156.585 57.9659 156.585C47.7725 156.585 39.5027 164.855 39.5027 175.049C39.5027 185.242 47.7725 193.512 57.9659 193.512C64.1403 193.512 69.6106 190.48 72.9597 185.817V192.198H76.4291V176.509H76.369C76.412 176.028 76.4291 175.538 76.4291 175.049ZM57.9659 190.077C49.6703 190.077 42.9377 183.542 42.9377 175.478C42.9377 167.414 49.6703 160.879 57.9659 160.879C66.2614 160.879 72.9941 167.414 72.9941 175.478C72.9941 183.542 66.2614 190.077 57.9659 190.077Z" fill="white"/>
<path d="M100.474 157.444C94.4716 157.444 89.1473 160.381 85.8754 164.889V149.423H82.4404V175.478C82.4404 185.439 90.5127 193.512 100.474 193.512C110.436 193.512 118.508 185.439 118.508 175.478C118.508 165.516 110.436 157.444 100.474 157.444ZM100.474 190.077C92.4106 190.077 85.8754 183.542 85.8754 175.478C85.8754 167.414 92.4106 160.879 100.474 160.879C108.538 160.879 115.073 167.414 115.073 175.478C115.073 183.542 108.538 190.077 100.474 190.077Z" fill="white"/>
<path d="M124.09 158.174V181.36C124.09 182.666 124.201 183.679 124.708 184.881C125.146 185.912 125.696 186.899 126.357 187.801C127.654 189.57 129.354 191.039 131.303 192.035C132.926 192.868 134.713 193.374 136.542 193.503C141.703 193.855 146.692 191.185 149.423 186.633C152.669 192.129 158.998 194.894 164.881 193.503C169.269 192.464 172.876 189.184 174.576 185.036C175.143 183.653 175.177 182.417 175.151 180.94L175.074 176.259L174.928 166.89C174.919 166.161 174.765 158.174 174.791 158.174C173.494 158.217 172.197 158.26 170.901 158.303V180.433C170.901 181.781 170.849 182.966 170.308 184.22C169.87 185.242 169.252 186.178 168.496 186.994C167.002 188.6 164.966 189.69 162.794 189.991C162.347 190.051 161.901 190.085 161.454 190.077C156.697 190.042 152.583 186.358 152.008 181.489C151.862 173.718 151.725 165.946 151.579 158.174H147.079L146.855 179.772C146.761 184.418 143.481 188.351 139.127 189.218C134.73 190.094 130.221 187.586 128.409 183.533C127.817 182.211 127.971 180.871 127.98 179.454C127.98 177.891 127.997 176.328 127.997 174.765C128.014 171.639 128.023 168.513 128.04 165.388C128.049 162.983 128.066 160.579 128.074 158.166H124.098L124.09 158.174Z" fill="white"/>
<path d="M181.188 158.174H185.19L185.491 192.653H181.188V158.174Z" fill="white"/>
<path d="M211.253 161.738V157.444C210.3 157.272 201.781 155.838 195.796 161.738C194.551 162.957 193.529 164.4 192.764 165.963C191.983 167.552 191.502 168.9 191.502 170.686C191.502 172.764 191.502 174.851 191.502 176.929V189.416C191.502 189.69 191.502 192.662 191.502 192.662H194.937V184.048C194.937 180.107 194.946 176.165 194.937 172.223C194.928 168.316 197.642 164.495 200.948 162.605C205.792 159.84 210.583 161.506 211.253 161.747V161.738Z" fill="white"/>
<path d="M242.168 160.02C235.075 155.28 227.2 157.839 225.852 158.303C221.292 159.883 218.682 162.811 218.123 163.455C217.694 163.945 213.684 168.737 213.83 175.478C213.993 183.018 219.343 191.605 228.428 193.512C237.428 195.392 246.806 190.034 249.897 180.888C248.463 180.802 247.038 180.716 245.603 180.63C242.443 187.509 235.006 191.021 228.428 189.218C223.113 187.758 219.059 183.018 218.123 177.195H249.897C250.601 170.334 247.647 163.687 242.168 160.02ZM218.123 172.902C219.369 166.332 224.736 161.429 231.005 160.879C238.124 160.252 244.968 165.37 246.462 172.902H218.123Z" fill="white"/>
</svg>
