<svg width="390" height="844" viewBox="0 0 390 844" fill="none" xmlns="http://www.w3.org/2000/svg">
<g clip-path="url(#clip0_243_365)">
<rect width="390" height="844" rx="30" fill="white"/>
<g clip-path="url(#clip1_243_365)">
<rect x="126.977" y="831" width="136.047" height="5" rx="2.5" fill="#1E1E1E"/>
<path d="M27.5209 32L31.1589 26.934L31.9919 26.679C31.8559 26.9397 31.6972 27.172 31.5159 27.376C31.3459 27.5687 31.1249 27.716 30.8529 27.818C30.5809 27.92 30.2239 27.971 29.7819 27.971C29.0792 27.971 28.4332 27.8067 27.8439 27.478C27.2659 27.138 26.8012 26.6733 26.4499 26.084C26.0985 25.4947 25.9229 24.8203 25.9229 24.061C25.9229 23.2903 26.1155 22.5877 26.5009 21.953C26.8862 21.307 27.4075 20.797 28.0649 20.423C28.7222 20.049 29.4532 19.862 30.2579 19.862C31.0739 19.862 31.8049 20.049 32.4509 20.423C33.1082 20.797 33.6239 21.2957 33.9979 21.919C34.3832 22.5423 34.5759 23.2393 34.5759 24.01C34.5759 25.064 34.2075 26.1293 33.4709 27.206L30.1559 32H27.5209ZM30.2579 26.203C30.6545 26.203 31.0059 26.1123 31.3119 25.931C31.6179 25.7497 31.8559 25.5003 32.0259 25.183C32.2072 24.8543 32.2979 24.4917 32.2979 24.095C32.2979 23.6757 32.2072 23.3073 32.0259 22.99C31.8559 22.6727 31.6179 22.4233 31.3119 22.242C31.0059 22.0493 30.6545 21.953 30.2579 21.953C29.8612 21.953 29.5042 22.0493 29.1869 22.242C28.8809 22.4233 28.6372 22.6727 28.4559 22.99C28.2859 23.3073 28.2009 23.6757 28.2009 24.095C28.2009 24.503 28.2859 24.8657 28.4559 25.183C28.6372 25.5003 28.8865 25.7497 29.2039 25.931C29.5212 26.1123 29.8725 26.203 30.2579 26.203ZM37.064 32.17C36.656 32.17 36.3216 32.034 36.061 31.762C35.8003 31.49 35.67 31.1613 35.67 30.776C35.67 30.368 35.8003 30.028 36.061 29.756C36.3216 29.484 36.656 29.348 37.064 29.348C37.472 29.348 37.8063 29.484 38.067 29.756C38.3276 30.028 38.458 30.368 38.458 30.776C38.458 31.1613 38.3276 31.49 38.067 31.762C37.8063 32.034 37.472 32.17 37.064 32.17ZM37.064 27.036C36.656 27.036 36.3216 26.9 36.061 26.628C35.8003 26.356 35.67 26.0217 35.67 25.625C35.67 25.217 35.8003 24.8827 36.061 24.622C36.3216 24.35 36.656 24.214 37.064 24.214C37.472 24.214 37.8063 24.35 38.067 24.622C38.3276 24.8827 38.458 25.217 38.458 25.625C38.458 26.0217 38.3276 26.356 38.067 26.628C37.8063 26.9 37.472 27.036 37.064 27.036ZM39.4822 27.784L43.5622 20.049H46.1122L41.9302 27.784H39.4822ZM39.4822 29.144V27.784L40.3322 27.121H48.9002V29.144H39.4822ZM45.1262 32V24.384H47.4042V32H45.1262ZM51.0649 32V20.049H53.3429V32H51.0649ZM48.7189 22.055V20.049H53.1729V22.055H48.7189Z" fill="#1E1E1E"/>
<path opacity="0.35" d="M342 17.5273H359C360.918 17.5273 362.473 19.0822 362.473 21V26C362.473 27.9178 360.918 29.4727 359 29.4727H342C340.082 29.4727 338.527 27.9178 338.527 26V21C338.527 19.0822 340.082 17.5273 342 17.5273Z" stroke="#1E1E1E" stroke-width="1.05509"/>
<path opacity="0.4" d="M364 22V26.2203C364.849 25.8629 365.401 25.0314 365.401 24.1102C365.401 23.1889 364.849 22.3574 364 22Z" fill="#1E1E1E"/>
<path d="M340 21C340 19.8954 340.895 19 342 19H359C360.105 19 361 19.8954 361 21V26C361 27.1046 360.105 28 359 28H342C340.895 28 340 27.1046 340 26V21Z" fill="#1E1E1E"/>
<path d="M320.115 27.0848C321.535 25.8592 323.614 25.8593 325.034 27.0848C325.106 27.1507 325.147 27.2443 325.149 27.3426C325.151 27.4408 325.114 27.5355 325.045 27.6043L322.821 29.8943C322.756 29.9615 322.668 29.9997 322.575 29.9998C322.482 29.9998 322.393 29.9616 322.328 29.8943L320.104 27.6043C320.036 27.5354 319.998 27.4408 320 27.3426C320.002 27.2443 320.044 27.1506 320.115 27.0848ZM317.109 24.2615C320.168 21.3569 324.906 21.3569 327.965 24.2615C328.034 24.3296 328.073 24.4233 328.074 24.5213C328.075 24.6192 328.037 24.7136 327.97 24.783L326.685 26.1082C326.552 26.2435 326.338 26.2468 326.202 26.115C325.198 25.1866 323.891 24.6716 322.536 24.6717C321.182 24.6722 319.876 25.1871 318.872 26.115C318.736 26.2468 318.522 26.2435 318.39 26.1082L317.104 24.783C317.037 24.7137 316.999 24.6192 317 24.5213C317.001 24.4233 317.04 24.3296 317.109 24.2615ZM314.107 21.4422C318.799 16.8526 326.201 16.8526 330.893 21.4422C330.96 21.5104 330.999 21.6037 331 21.701C331 21.7981 330.963 21.8918 330.896 21.9607L329.609 23.2859C329.477 23.4219 329.262 23.4236 329.127 23.2898C327.339 21.5551 324.967 20.5878 322.5 20.5877C320.033 20.5878 317.661 21.5551 315.873 23.2898C315.739 23.4237 315.523 23.4221 315.391 23.2859L314.104 21.9607C314.037 21.8918 314 21.798 314 21.701C314.001 21.6037 314.039 21.5103 314.107 21.4422Z" fill="#1E1E1E"/>
<path d="M298 21C298 20.4477 298.448 20 299 20H300C300.552 20 301 20.4477 301 21V29C301 29.5523 300.552 30 300 30H299C298.448 30 298 29.5523 298 29V21Z" fill="#1E1E1E"/>
<path d="M303 19C303 18.4477 303.448 18 304 18H305C305.552 18 306 18.4477 306 19V29C306 29.5523 305.552 30 305 30H304C303.448 30 303 29.5523 303 29V19Z" fill="#1E1E1E"/>
<path d="M293 24.5C293 23.9477 293.448 23.5 294 23.5H295C295.552 23.5 296 23.9477 296 24.5V29C296 29.5523 295.552 30 295 30H294C293.448 30 293 29.5523 293 29V24.5Z" fill="#1E1E1E"/>
<path d="M288 27C288 26.4477 288.448 26 289 26H290C290.552 26 291 26.4477 291 27V29C291 29.5523 290.552 30 290 30H289C288.448 30 288 29.5523 288 29V27Z" fill="#1E1E1E"/>
<g filter="url(#filter0_d_243_365)">
<path d="M239.294 191H150.706C138.175 191 128.017 201.158 128.017 213.688V302.277C128.017 314.808 138.175 324.966 150.706 324.966H239.294C251.825 324.966 261.983 314.808 261.983 302.277V213.688C261.983 201.158 251.825 191 239.294 191Z" fill="white"/>
<path d="M252.536 251.971L221.037 297.391C218.307 301.333 212.579 301.59 209.496 297.915L199.423 285.892L190.972 297.477C187.89 301.693 181.578 301.642 178.581 297.365L162.376 274.299L147.82 273.895C140.838 273.698 136.905 265.797 140.95 260.112C141.929 258.738 142.908 257.364 143.878 255.99C146.188 252.753 148.49 249.515 150.8 246.269C153.496 242.474 156.201 238.678 158.898 234.891C160.968 231.988 163.046 229.086 165.098 226.175C166.61 224.045 168.087 221.288 170.766 220.49C173.171 219.768 175.747 220.189 178.211 220.18C182.376 220.163 186.533 220.146 190.698 220.12C194.425 220.103 198.152 220.086 201.87 220.069C202.866 220.069 203.845 219.923 204.781 220.301C205.228 220.481 205.657 220.696 206.069 220.945C207.22 221.649 208.199 222.636 208.757 223.873C209.573 225.676 209.668 228.287 208.551 229.987C207.778 231.164 206.971 232.332 206.19 233.5C204.386 236.205 202.583 238.901 200.788 241.606L200.178 242.525H183.862L190.732 231.361H177.851L156.382 262.277H170.122L176.992 251.971H193.308L178.709 272.582L184.721 282.028L206.19 251.971H222.506L207.907 273.44L214.777 282.887L236.246 251.971H252.562H252.536Z" fill="#012F9E"/>
</g>
<path d="M46.32 388.966L39.51 367.786H44.19L49.17 384.076H47.34L52.2 367.786H55.89L60.75 384.076H58.95L63.9 367.786H68.55L61.74 388.966H58.05L53.16 372.676H54.9L50.01 388.966H46.32ZM77.5036 389.296C75.9236 389.296 74.5136 388.976 73.2736 388.336C72.0536 387.676 71.0936 386.766 70.3936 385.606C69.6936 384.446 69.3436 383.136 69.3436 381.676C69.3436 380.216 69.6836 378.916 70.3636 377.776C71.0636 376.616 72.0036 375.706 73.1836 375.046C74.3636 374.386 75.6936 374.056 77.1736 374.056C78.6136 374.056 79.8836 374.366 80.9836 374.986C82.0836 375.606 82.9436 376.466 83.5636 377.566C84.2036 378.666 84.5236 379.926 84.5236 381.346C84.5236 381.606 84.5036 381.886 84.4636 382.186C84.4436 382.466 84.3936 382.796 84.3136 383.176L71.7436 383.206V380.056L82.3636 380.026L80.3836 381.346C80.3636 380.506 80.2336 379.816 79.9936 379.276C79.7536 378.716 79.3936 378.296 78.9136 378.016C78.4536 377.716 77.8836 377.566 77.2036 377.566C76.4836 377.566 75.8536 377.736 75.3136 378.076C74.7936 378.396 74.3836 378.856 74.0836 379.456C73.8036 380.056 73.6636 380.786 73.6636 381.646C73.6636 382.506 73.8136 383.246 74.1136 383.866C74.4336 384.466 74.8736 384.936 75.4336 385.276C76.0136 385.596 76.6936 385.756 77.4736 385.756C78.1936 385.756 78.8436 385.636 79.4236 385.396C80.0036 385.136 80.5136 384.756 80.9536 384.256L83.4736 386.776C82.7536 387.616 81.8836 388.246 80.8636 388.666C79.8436 389.086 78.7236 389.296 77.5036 389.296ZM88.2391 388.966V367.186H92.8291V388.966H88.2391ZM104.611 389.296C103.111 389.296 101.751 388.966 100.531 388.306C99.3114 387.646 98.3514 386.736 97.6514 385.576C96.9514 384.416 96.6014 383.116 96.6014 381.676C96.6014 380.216 96.9514 378.916 97.6514 377.776C98.3714 376.616 99.3414 375.706 100.561 375.046C101.781 374.386 103.151 374.056 104.671 374.056C105.811 374.056 106.851 374.256 107.791 374.656C108.751 375.036 109.601 375.616 110.341 376.396L107.401 379.336C107.061 378.956 106.661 378.676 106.201 378.496C105.761 378.316 105.251 378.226 104.671 378.226C104.011 378.226 103.421 378.376 102.901 378.676C102.401 378.956 102.001 379.356 101.701 379.876C101.421 380.376 101.281 380.966 101.281 381.646C101.281 382.326 101.421 382.926 101.701 383.446C102.001 383.966 102.411 384.376 102.931 384.676C103.451 384.976 104.031 385.126 104.671 385.126C105.271 385.126 105.801 385.026 106.261 384.826C106.741 384.606 107.151 384.306 107.491 383.926L110.401 386.866C109.641 387.666 108.781 388.276 107.821 388.696C106.861 389.096 105.791 389.296 104.611 389.296ZM120.613 389.296C119.113 389.296 117.753 388.966 116.533 388.306C115.333 387.626 114.383 386.706 113.683 385.546C112.983 384.386 112.633 383.086 112.633 381.646C112.633 380.206 112.983 378.916 113.683 377.776C114.383 376.636 115.333 375.736 116.533 375.076C117.733 374.396 119.093 374.056 120.613 374.056C122.133 374.056 123.493 374.386 124.693 375.046C125.893 375.706 126.843 376.616 127.543 377.776C128.243 378.916 128.593 380.206 128.593 381.646C128.593 383.086 128.243 384.386 127.543 385.546C126.843 386.706 125.893 387.626 124.693 388.306C123.493 388.966 122.133 389.296 120.613 389.296ZM120.613 385.126C121.273 385.126 121.853 384.986 122.353 384.706C122.853 384.406 123.233 383.996 123.493 383.476C123.773 382.936 123.913 382.326 123.913 381.646C123.913 380.966 123.773 380.376 123.493 379.876C123.213 379.356 122.823 378.956 122.323 378.676C121.843 378.376 121.273 378.226 120.613 378.226C119.973 378.226 119.403 378.376 118.903 378.676C118.403 378.956 118.013 379.356 117.733 379.876C117.453 380.396 117.313 380.996 117.313 381.676C117.313 382.336 117.453 382.936 117.733 383.476C118.013 383.996 118.403 384.406 118.903 384.706C119.403 384.986 119.973 385.126 120.613 385.126ZM132.378 388.966V374.386H136.968V388.966H132.378ZM141.708 388.966V380.446C141.708 379.706 141.478 379.136 141.018 378.736C140.578 378.316 140.028 378.106 139.368 378.106C138.908 378.106 138.498 378.206 138.138 378.406C137.778 378.586 137.488 378.846 137.268 379.186C137.068 379.526 136.968 379.946 136.968 380.446L135.198 379.666C135.198 378.506 135.448 377.516 135.948 376.696C136.448 375.856 137.128 375.216 137.988 374.776C138.848 374.316 139.818 374.086 140.898 374.086C141.918 374.086 142.828 374.316 143.628 374.776C144.448 375.236 145.098 375.876 145.578 376.696C146.058 377.516 146.298 378.496 146.298 379.636V388.966H141.708ZM151.038 388.966V380.446C151.038 379.706 150.808 379.136 150.348 378.736C149.908 378.316 149.358 378.106 148.698 378.106C148.238 378.106 147.828 378.206 147.468 378.406C147.108 378.586 146.818 378.846 146.598 379.186C146.398 379.526 146.298 379.946 146.298 380.446L143.658 380.086C143.698 378.846 143.988 377.786 144.528 376.906C145.088 376.006 145.818 375.316 146.718 374.836C147.638 374.336 148.668 374.086 149.808 374.086C150.928 374.086 151.918 374.326 152.778 374.806C153.658 375.266 154.348 375.936 154.848 376.816C155.368 377.676 155.628 378.716 155.628 379.936V388.966H151.038ZM167.269 389.296C165.689 389.296 164.279 388.976 163.039 388.336C161.819 387.676 160.859 386.766 160.159 385.606C159.459 384.446 159.109 383.136 159.109 381.676C159.109 380.216 159.449 378.916 160.129 377.776C160.829 376.616 161.769 375.706 162.949 375.046C164.129 374.386 165.459 374.056 166.939 374.056C168.379 374.056 169.649 374.366 170.749 374.986C171.849 375.606 172.709 376.466 173.329 377.566C173.969 378.666 174.289 379.926 174.289 381.346C174.289 381.606 174.269 381.886 174.229 382.186C174.209 382.466 174.159 382.796 174.079 383.176L161.509 383.206V380.056L172.129 380.026L170.149 381.346C170.129 380.506 169.999 379.816 169.759 379.276C169.519 378.716 169.159 378.296 168.679 378.016C168.219 377.716 167.649 377.566 166.969 377.566C166.249 377.566 165.619 377.736 165.079 378.076C164.559 378.396 164.149 378.856 163.849 379.456C163.569 380.056 163.429 380.786 163.429 381.646C163.429 382.506 163.579 383.246 163.879 383.866C164.199 384.466 164.639 384.936 165.199 385.276C165.779 385.596 166.459 385.756 167.239 385.756C167.959 385.756 168.609 385.636 169.189 385.396C169.769 385.136 170.279 384.756 170.719 384.256L173.239 386.776C172.519 387.616 171.649 388.246 170.629 388.666C169.609 389.086 168.489 389.296 167.269 389.296ZM190.359 388.966V368.086H195.069V388.966H190.359ZM183.729 371.896V367.786H201.699V371.896H183.729ZM208.943 389.296C207.443 389.296 206.083 388.966 204.863 388.306C203.663 387.626 202.713 386.706 202.013 385.546C201.313 384.386 200.963 383.086 200.963 381.646C200.963 380.206 201.313 378.916 202.013 377.776C202.713 376.636 203.663 375.736 204.863 375.076C206.063 374.396 207.423 374.056 208.943 374.056C210.463 374.056 211.823 374.386 213.023 375.046C214.223 375.706 215.173 376.616 215.873 377.776C216.573 378.916 216.923 380.206 216.923 381.646C216.923 383.086 216.573 384.386 215.873 385.546C215.173 386.706 214.223 387.626 213.023 388.306C211.823 388.966 210.463 389.296 208.943 389.296ZM208.943 385.126C209.603 385.126 210.183 384.986 210.683 384.706C211.183 384.406 211.563 383.996 211.823 383.476C212.103 382.936 212.243 382.326 212.243 381.646C212.243 380.966 212.103 380.376 211.823 379.876C211.543 379.356 211.153 378.956 210.653 378.676C210.173 378.376 209.603 378.226 208.943 378.226C208.303 378.226 207.733 378.376 207.233 378.676C206.733 378.956 206.343 379.356 206.063 379.876C205.783 380.396 205.643 380.996 205.643 381.676C205.643 382.336 205.783 382.936 206.063 383.476C206.343 383.996 206.733 384.406 207.233 384.706C207.733 384.986 208.303 385.126 208.943 385.126ZM238.391 389.296C236.811 389.296 235.341 389.026 233.981 388.486C232.641 387.926 231.461 387.146 230.441 386.146C229.441 385.146 228.661 383.986 228.101 382.666C227.541 381.326 227.261 379.886 227.261 378.346C227.261 376.806 227.541 375.376 228.101 374.056C228.661 372.716 229.441 371.556 230.441 370.576C231.441 369.596 232.611 368.836 233.951 368.296C235.311 367.736 236.781 367.456 238.361 367.456C240.041 367.456 241.531 367.726 242.831 368.266C244.151 368.806 245.301 369.546 246.281 370.486L243.131 373.666C242.571 373.066 241.891 372.596 241.091 372.256C240.311 371.916 239.401 371.746 238.361 371.746C237.441 371.746 236.591 371.906 235.811 372.226C235.051 372.526 234.391 372.966 233.831 373.546C233.291 374.126 232.861 374.826 232.541 375.646C232.241 376.466 232.091 377.366 232.091 378.346C232.091 379.346 232.241 380.256 232.541 381.076C232.861 381.896 233.291 382.596 233.831 383.176C234.391 383.756 235.051 384.206 235.811 384.526C236.591 384.846 237.441 385.006 238.361 385.006C239.441 385.006 240.381 384.836 241.181 384.496C241.981 384.156 242.671 383.686 243.251 383.086L246.431 386.266C245.411 387.206 244.241 387.946 242.921 388.486C241.621 389.026 240.111 389.296 238.391 389.296ZM255.843 389.266C254.503 389.266 253.303 388.936 252.243 388.276C251.203 387.616 250.373 386.716 249.753 385.576C249.153 384.436 248.853 383.136 248.853 381.676C248.853 380.216 249.153 378.916 249.753 377.776C250.373 376.636 251.203 375.736 252.243 375.076C253.303 374.416 254.503 374.086 255.843 374.086C256.823 374.086 257.703 374.276 258.483 374.656C259.283 375.036 259.933 375.566 260.433 376.246C260.933 376.906 261.213 377.666 261.273 378.526V384.826C261.213 385.686 260.933 386.456 260.433 387.136C259.953 387.796 259.313 388.316 258.513 388.696C257.713 389.076 256.823 389.266 255.843 389.266ZM256.773 385.126C257.753 385.126 258.543 384.806 259.143 384.166C259.743 383.506 260.043 382.676 260.043 381.676C260.043 380.996 259.903 380.396 259.623 379.876C259.363 379.356 258.983 378.956 258.483 378.676C258.003 378.376 257.443 378.226 256.803 378.226C256.163 378.226 255.593 378.376 255.093 378.676C254.613 378.956 254.223 379.356 253.923 379.876C253.643 380.396 253.503 380.996 253.503 381.676C253.503 382.336 253.643 382.926 253.923 383.446C254.203 383.966 254.593 384.376 255.093 384.676C255.593 384.976 256.153 385.126 256.773 385.126ZM259.863 388.966V385.036L260.553 381.496L259.863 377.956V374.386H264.363V388.966H259.863ZM277.495 389.266C276.515 389.266 275.615 389.066 274.795 388.666C273.975 388.246 273.305 387.696 272.785 387.016C272.265 386.316 271.965 385.536 271.885 384.676V378.526C271.965 377.666 272.265 376.906 272.785 376.246C273.305 375.566 273.975 375.036 274.795 374.656C275.615 374.276 276.515 374.086 277.495 374.086C278.875 374.086 280.095 374.416 281.155 375.076C282.235 375.736 283.075 376.636 283.675 377.776C284.295 378.916 284.605 380.216 284.605 381.676C284.605 383.136 284.295 384.436 283.675 385.576C283.075 386.716 282.235 387.616 281.155 388.276C280.095 388.936 278.875 389.266 277.495 389.266ZM269.095 388.966V367.186H273.685V377.956L272.935 381.496L273.625 385.036V388.966H269.095ZM276.685 385.126C277.325 385.126 277.885 384.976 278.365 384.676C278.865 384.376 279.255 383.966 279.535 383.446C279.815 382.926 279.955 382.336 279.955 381.676C279.955 380.996 279.815 380.396 279.535 379.876C279.255 379.356 278.865 378.956 278.365 378.676C277.885 378.376 277.325 378.226 276.685 378.226C276.045 378.226 275.475 378.376 274.975 378.676C274.475 378.956 274.085 379.356 273.805 379.876C273.545 380.396 273.415 380.996 273.415 381.676C273.415 382.356 273.555 382.956 273.835 383.476C274.115 383.996 274.495 384.406 274.975 384.706C275.475 384.986 276.045 385.126 276.685 385.126ZM291.713 388.966L286.673 374.386H291.173L294.293 384.976L292.973 385.006L296.423 374.386H300.143L303.623 385.006L302.273 384.976L305.423 374.386H309.923L304.883 388.966H301.133L297.743 378.886H298.883L295.433 388.966H291.713ZM312.964 388.966V374.386H317.554V388.966H312.964ZM315.274 372.376C314.554 372.376 313.954 372.136 313.474 371.656C313.014 371.156 312.784 370.556 312.784 369.856C312.784 369.136 313.014 368.536 313.474 368.056C313.954 367.576 314.554 367.336 315.274 367.336C315.994 367.336 316.584 367.576 317.044 368.056C317.504 368.536 317.734 369.136 317.734 369.856C317.734 370.556 317.504 371.156 317.044 371.656C316.584 372.136 315.994 372.376 315.274 372.376ZM322.286 388.966V374.386H326.876V388.966H322.286ZM326.876 380.956L324.956 379.456C325.336 377.756 325.976 376.436 326.876 375.496C327.776 374.556 329.026 374.086 330.626 374.086C331.326 374.086 331.936 374.196 332.456 374.416C332.996 374.616 333.466 374.936 333.866 375.376L331.136 378.826C330.936 378.606 330.686 378.436 330.386 378.316C330.086 378.196 329.746 378.136 329.366 378.136C328.606 378.136 327.996 378.376 327.536 378.856C327.096 379.316 326.876 380.016 326.876 380.956ZM343.379 389.296C341.799 389.296 340.389 388.976 339.149 388.336C337.929 387.676 336.969 386.766 336.269 385.606C335.569 384.446 335.219 383.136 335.219 381.676C335.219 380.216 335.559 378.916 336.239 377.776C336.939 376.616 337.879 375.706 339.059 375.046C340.239 374.386 341.569 374.056 343.049 374.056C344.489 374.056 345.759 374.366 346.859 374.986C347.959 375.606 348.819 376.466 349.439 377.566C350.079 378.666 350.399 379.926 350.399 381.346C350.399 381.606 350.379 381.886 350.339 382.186C350.319 382.466 350.269 382.796 350.189 383.176L337.619 383.206V380.056L348.239 380.026L346.259 381.346C346.239 380.506 346.109 379.816 345.869 379.276C345.629 378.716 345.269 378.296 344.789 378.016C344.329 377.716 343.759 377.566 343.079 377.566C342.359 377.566 341.729 377.736 341.189 378.076C340.669 378.396 340.259 378.856 339.959 379.456C339.679 380.056 339.539 380.786 339.539 381.646C339.539 382.506 339.689 383.246 339.989 383.866C340.309 384.466 340.749 384.936 341.309 385.276C341.889 385.596 342.569 385.756 343.349 385.756C344.069 385.756 344.719 385.636 345.299 385.396C345.879 385.136 346.389 384.756 346.829 384.256L349.349 386.776C348.629 387.616 347.759 388.246 346.739 388.666C345.719 389.086 344.599 389.296 343.379 389.296Z" fill="#1E1E1E"/>
<path d="M120.67 430.146C119.758 430.146 118.912 429.984 118.132 429.66C117.364 429.324 116.692 428.862 116.116 428.274C115.54 427.674 115.096 426.984 114.784 426.204C114.472 425.412 114.316 424.566 114.316 423.666C114.316 422.766 114.472 421.926 114.784 421.146C115.096 420.354 115.54 419.664 116.116 419.076C116.692 418.488 117.364 418.026 118.132 417.69C118.912 417.354 119.758 417.186 120.67 417.186C121.69 417.186 122.572 417.354 123.316 417.69C124.06 418.026 124.72 418.482 125.296 419.058L123.892 420.462C123.52 420.054 123.064 419.736 122.524 419.508C121.996 419.28 121.378 419.166 120.67 419.166C120.046 419.166 119.476 419.274 118.96 419.49C118.444 419.706 117.994 420.018 117.61 420.426C117.238 420.822 116.95 421.296 116.746 421.848C116.542 422.4 116.44 423.006 116.44 423.666C116.44 424.326 116.542 424.932 116.746 425.484C116.95 426.036 117.238 426.516 117.61 426.924C117.994 427.32 118.444 427.626 118.96 427.842C119.476 428.058 120.046 428.166 120.67 428.166C121.438 428.166 122.086 428.052 122.614 427.824C123.154 427.584 123.61 427.26 123.982 426.852L125.386 428.256C124.81 428.844 124.132 429.306 123.352 429.642C122.572 429.978 121.678 430.146 120.67 430.146ZM132.885 429.966V424.98C132.885 424.404 132.699 423.93 132.327 423.558C131.967 423.186 131.499 423 130.923 423C130.539 423 130.197 423.084 129.897 423.252C129.597 423.42 129.363 423.654 129.195 423.954C129.027 424.254 128.943 424.596 128.943 424.98L128.169 424.548C128.169 423.888 128.313 423.306 128.601 422.802C128.889 422.286 129.285 421.884 129.789 421.596C130.305 421.296 130.881 421.146 131.517 421.146C132.165 421.146 132.741 421.29 133.245 421.578C133.749 421.866 134.145 422.268 134.433 422.784C134.721 423.288 134.865 423.876 134.865 424.548V429.966H132.885ZM126.963 429.966V417.006H128.943V429.966H126.963ZM140.837 430.146C139.997 430.146 139.235 429.948 138.551 429.552C137.867 429.144 137.321 428.598 136.913 427.914C136.517 427.23 136.319 426.468 136.319 425.628C136.319 424.788 136.517 424.032 136.913 423.36C137.321 422.688 137.867 422.154 138.551 421.758C139.235 421.35 139.997 421.146 140.837 421.146C141.689 421.146 142.457 421.344 143.141 421.74C143.825 422.136 144.365 422.676 144.761 423.36C145.169 424.032 145.373 424.788 145.373 425.628C145.373 426.468 145.169 427.23 144.761 427.914C144.365 428.598 143.825 429.144 143.141 429.552C142.457 429.948 141.689 430.146 140.837 430.146ZM140.837 428.238C141.329 428.238 141.761 428.13 142.133 427.914C142.517 427.686 142.811 427.374 143.015 426.978C143.231 426.582 143.339 426.132 143.339 425.628C143.339 425.124 143.231 424.68 143.015 424.296C142.799 423.912 142.505 423.612 142.133 423.396C141.761 423.168 141.329 423.054 140.837 423.054C140.357 423.054 139.925 423.168 139.541 423.396C139.169 423.612 138.875 423.912 138.659 424.296C138.455 424.68 138.353 425.124 138.353 425.628C138.353 426.132 138.455 426.582 138.659 426.978C138.875 427.374 139.169 427.686 139.541 427.914C139.925 428.13 140.357 428.238 140.837 428.238ZM150.98 430.146C150.14 430.146 149.378 429.948 148.694 429.552C148.01 429.144 147.464 428.598 147.056 427.914C146.66 427.23 146.462 426.468 146.462 425.628C146.462 424.788 146.66 424.032 147.056 423.36C147.464 422.688 148.01 422.154 148.694 421.758C149.378 421.35 150.14 421.146 150.98 421.146C151.832 421.146 152.6 421.344 153.284 421.74C153.968 422.136 154.508 422.676 154.904 423.36C155.312 424.032 155.516 424.788 155.516 425.628C155.516 426.468 155.312 427.23 154.904 427.914C154.508 428.598 153.968 429.144 153.284 429.552C152.6 429.948 151.832 430.146 150.98 430.146ZM150.98 428.238C151.472 428.238 151.904 428.13 152.276 427.914C152.66 427.686 152.954 427.374 153.158 426.978C153.374 426.582 153.482 426.132 153.482 425.628C153.482 425.124 153.374 424.68 153.158 424.296C152.942 423.912 152.648 423.612 152.276 423.396C151.904 423.168 151.472 423.054 150.98 423.054C150.5 423.054 150.068 423.168 149.684 423.396C149.312 423.612 149.018 423.912 148.802 424.296C148.598 424.68 148.496 425.124 148.496 425.628C148.496 426.132 148.598 426.582 148.802 426.978C149.018 427.374 149.312 427.686 149.684 427.914C150.068 428.13 150.5 428.238 150.98 428.238ZM159.988 430.146C159.508 430.146 159.046 430.086 158.602 429.966C158.158 429.834 157.75 429.654 157.378 429.426C157.006 429.186 156.682 428.898 156.406 428.562L157.666 427.302C157.966 427.65 158.308 427.914 158.692 428.094C159.088 428.262 159.532 428.346 160.024 428.346C160.468 428.346 160.804 428.28 161.032 428.148C161.26 428.016 161.374 427.824 161.374 427.572C161.374 427.308 161.266 427.104 161.05 426.96C160.834 426.816 160.552 426.696 160.204 426.6C159.868 426.492 159.508 426.384 159.124 426.276C158.752 426.168 158.392 426.024 158.044 425.844C157.708 425.652 157.432 425.394 157.216 425.07C157 424.746 156.892 424.326 156.892 423.81C156.892 423.258 157.018 422.784 157.27 422.388C157.534 421.992 157.9 421.686 158.368 421.47C158.848 421.254 159.418 421.146 160.078 421.146C160.774 421.146 161.386 421.272 161.914 421.524C162.454 421.764 162.904 422.13 163.264 422.622L162.004 423.882C161.752 423.57 161.464 423.336 161.14 423.18C160.816 423.024 160.444 422.946 160.024 422.946C159.628 422.946 159.322 423.006 159.106 423.126C158.89 423.246 158.782 423.42 158.782 423.648C158.782 423.888 158.89 424.074 159.106 424.206C159.322 424.338 159.598 424.452 159.934 424.548C160.282 424.644 160.642 424.752 161.014 424.872C161.398 424.98 161.758 425.136 162.094 425.34C162.442 425.532 162.724 425.796 162.94 426.132C163.156 426.456 163.264 426.882 163.264 427.41C163.264 428.25 162.97 428.916 162.382 429.408C161.794 429.9 160.996 430.146 159.988 430.146ZM168.911 430.146C168.047 430.146 167.267 429.954 166.571 429.57C165.887 429.174 165.341 428.634 164.933 427.95C164.537 427.266 164.339 426.498 164.339 425.646C164.339 424.794 164.537 424.032 164.933 423.36C165.329 422.676 165.863 422.136 166.535 421.74C167.219 421.344 167.975 421.146 168.803 421.146C169.607 421.146 170.315 421.332 170.927 421.704C171.551 422.076 172.037 422.586 172.385 423.234C172.745 423.882 172.925 424.62 172.925 425.448C172.925 425.592 172.913 425.742 172.889 425.898C172.877 426.042 172.853 426.204 172.817 426.384H165.725V424.764H171.791L171.053 425.412C171.029 424.884 170.927 424.44 170.747 424.08C170.567 423.72 170.309 423.444 169.973 423.252C169.649 423.06 169.247 422.964 168.767 422.964C168.263 422.964 167.825 423.072 167.453 423.288C167.081 423.504 166.793 423.81 166.589 424.206C166.385 424.59 166.283 425.052 166.283 425.592C166.283 426.132 166.391 426.606 166.607 427.014C166.823 427.422 167.129 427.74 167.525 427.968C167.921 428.184 168.377 428.292 168.893 428.292C169.337 428.292 169.745 428.214 170.117 428.058C170.501 427.902 170.825 427.674 171.089 427.374L172.349 428.652C171.929 429.144 171.419 429.516 170.819 429.768C170.219 430.02 169.583 430.146 168.911 430.146ZM180.906 430.056L177.216 421.326H179.394L181.914 427.734H181.284L183.948 421.326H186.144L182.13 430.056H180.906ZM178.332 433.566L181.014 428.04L182.13 430.056L180.528 433.566H178.332ZM190.953 430.146C190.113 430.146 189.351 429.948 188.667 429.552C187.983 429.144 187.437 428.598 187.029 427.914C186.633 427.23 186.435 426.468 186.435 425.628C186.435 424.788 186.633 424.032 187.029 423.36C187.437 422.688 187.983 422.154 188.667 421.758C189.351 421.35 190.113 421.146 190.953 421.146C191.805 421.146 192.573 421.344 193.257 421.74C193.941 422.136 194.481 422.676 194.877 423.36C195.285 424.032 195.489 424.788 195.489 425.628C195.489 426.468 195.285 427.23 194.877 427.914C194.481 428.598 193.941 429.144 193.257 429.552C192.573 429.948 191.805 430.146 190.953 430.146ZM190.953 428.238C191.445 428.238 191.877 428.13 192.249 427.914C192.633 427.686 192.927 427.374 193.131 426.978C193.347 426.582 193.455 426.132 193.455 425.628C193.455 425.124 193.347 424.68 193.131 424.296C192.915 423.912 192.621 423.612 192.249 423.396C191.877 423.168 191.445 423.054 190.953 423.054C190.473 423.054 190.041 423.168 189.657 423.396C189.285 423.612 188.991 423.912 188.775 424.296C188.571 424.68 188.469 425.124 188.469 425.628C188.469 426.132 188.571 426.582 188.775 426.978C188.991 427.374 189.285 427.686 189.657 427.914C190.041 428.13 190.473 428.238 190.953 428.238ZM200.681 430.146C199.949 430.146 199.295 429.984 198.719 429.66C198.155 429.336 197.711 428.892 197.387 428.328C197.075 427.752 196.919 427.092 196.919 426.348V421.326H198.899V426.258C198.899 426.678 198.965 427.038 199.097 427.338C199.241 427.626 199.445 427.848 199.709 428.004C199.985 428.16 200.309 428.238 200.681 428.238C201.257 428.238 201.695 428.07 201.995 427.734C202.307 427.386 202.463 426.894 202.463 426.258V421.326H204.443V426.348C204.443 427.104 204.281 427.77 203.957 428.346C203.645 428.91 203.207 429.354 202.643 429.678C202.079 429.99 201.425 430.146 200.681 430.146ZM206.434 429.966V421.326H208.414V429.966H206.434ZM208.414 425.16L207.73 424.818C207.73 423.726 207.97 422.844 208.45 422.172C208.942 421.488 209.68 421.146 210.664 421.146C211.096 421.146 211.486 421.224 211.834 421.38C212.182 421.536 212.506 421.788 212.806 422.136L211.51 423.468C211.354 423.3 211.18 423.18 210.988 423.108C210.796 423.036 210.574 423 210.322 423C209.77 423 209.314 423.174 208.954 423.522C208.594 423.87 208.414 424.416 208.414 425.16ZM216.82 433.746C216.208 433.746 215.71 433.65 215.326 433.458C214.93 433.266 214.57 432.984 214.246 432.612L215.524 431.334C215.668 431.526 215.83 431.664 216.01 431.748C216.19 431.844 216.412 431.892 216.676 431.892C217 431.892 217.276 431.79 217.504 431.586C217.744 431.394 217.864 431.106 217.864 430.722V421.326H219.844V430.704C219.844 431.364 219.7 431.916 219.412 432.36C219.136 432.816 218.77 433.158 218.314 433.386C217.858 433.626 217.36 433.746 216.82 433.746ZM218.89 419.742C218.554 419.742 218.272 419.628 218.044 419.4C217.828 419.172 217.72 418.89 217.72 418.554C217.72 418.218 217.828 417.936 218.044 417.708C218.272 417.48 218.554 417.366 218.89 417.366C219.238 417.366 219.52 417.48 219.736 417.708C219.952 417.936 220.06 418.218 220.06 418.554C220.06 418.89 219.952 419.172 219.736 419.4C219.52 419.628 219.238 419.742 218.89 419.742ZM226.003 430.146C225.163 430.146 224.401 429.948 223.717 429.552C223.033 429.144 222.487 428.598 222.079 427.914C221.683 427.23 221.485 426.468 221.485 425.628C221.485 424.788 221.683 424.032 222.079 423.36C222.487 422.688 223.033 422.154 223.717 421.758C224.401 421.35 225.163 421.146 226.003 421.146C226.855 421.146 227.623 421.344 228.307 421.74C228.991 422.136 229.531 422.676 229.927 423.36C230.335 424.032 230.539 424.788 230.539 425.628C230.539 426.468 230.335 427.23 229.927 427.914C229.531 428.598 228.991 429.144 228.307 429.552C227.623 429.948 226.855 430.146 226.003 430.146ZM226.003 428.238C226.495 428.238 226.927 428.13 227.299 427.914C227.683 427.686 227.977 427.374 228.181 426.978C228.397 426.582 228.505 426.132 228.505 425.628C228.505 425.124 228.397 424.68 228.181 424.296C227.965 423.912 227.671 423.612 227.299 423.396C226.927 423.168 226.495 423.054 226.003 423.054C225.523 423.054 225.091 423.168 224.707 423.396C224.335 423.612 224.041 423.912 223.825 424.296C223.621 424.68 223.519 425.124 223.519 425.628C223.519 426.132 223.621 426.582 223.825 426.978C224.041 427.374 224.335 427.686 224.707 427.914C225.091 428.13 225.523 428.238 226.003 428.238ZM235.732 430.146C235 430.146 234.346 429.984 233.77 429.66C233.206 429.336 232.762 428.892 232.438 428.328C232.126 427.752 231.97 427.092 231.97 426.348V421.326H233.95V426.258C233.95 426.678 234.016 427.038 234.148 427.338C234.292 427.626 234.496 427.848 234.76 428.004C235.036 428.16 235.36 428.238 235.732 428.238C236.308 428.238 236.746 428.07 237.046 427.734C237.358 427.386 237.514 426.894 237.514 426.258V421.326H239.494V426.348C239.494 427.104 239.332 427.77 239.008 428.346C238.696 428.91 238.258 429.354 237.694 429.678C237.13 429.99 236.476 430.146 235.732 430.146ZM241.485 429.966V421.326H243.465V429.966H241.485ZM243.465 425.16L242.781 424.818C242.781 423.726 243.021 422.844 243.501 422.172C243.993 421.488 244.731 421.146 245.715 421.146C246.147 421.146 246.537 421.224 246.885 421.38C247.233 421.536 247.557 421.788 247.857 422.136L246.561 423.468C246.405 423.3 246.231 423.18 246.039 423.108C245.847 423.036 245.625 423 245.373 423C244.821 423 244.365 423.174 244.005 423.522C243.645 423.87 243.465 424.416 243.465 425.16ZM254.737 429.966V424.98C254.737 424.404 254.551 423.93 254.179 423.558C253.819 423.186 253.351 423 252.775 423C252.391 423 252.049 423.084 251.749 423.252C251.449 423.42 251.215 423.654 251.047 423.954C250.879 424.254 250.795 424.596 250.795 424.98L250.021 424.548C250.021 423.888 250.165 423.306 250.453 422.802C250.741 422.286 251.137 421.884 251.641 421.596C252.157 421.296 252.733 421.146 253.369 421.146C254.017 421.146 254.593 421.314 255.097 421.65C255.601 421.974 255.997 422.4 256.285 422.928C256.573 423.444 256.717 423.984 256.717 424.548V429.966H254.737ZM248.815 429.966V421.326H250.795V429.966H248.815ZM262.743 430.146C261.879 430.146 261.099 429.954 260.403 429.57C259.719 429.174 259.173 428.634 258.765 427.95C258.369 427.266 258.171 426.498 258.171 425.646C258.171 424.794 258.369 424.032 258.765 423.36C259.161 422.676 259.695 422.136 260.367 421.74C261.051 421.344 261.807 421.146 262.635 421.146C263.439 421.146 264.147 421.332 264.759 421.704C265.383 422.076 265.869 422.586 266.217 423.234C266.577 423.882 266.757 424.62 266.757 425.448C266.757 425.592 266.745 425.742 266.721 425.898C266.709 426.042 266.685 426.204 266.649 426.384H259.557V424.764H265.623L264.885 425.412C264.861 424.884 264.759 424.44 264.579 424.08C264.399 423.72 264.141 423.444 263.805 423.252C263.481 423.06 263.079 422.964 262.599 422.964C262.095 422.964 261.657 423.072 261.285 423.288C260.913 423.504 260.625 423.81 260.421 424.206C260.217 424.59 260.115 425.052 260.115 425.592C260.115 426.132 260.223 426.606 260.439 427.014C260.655 427.422 260.961 427.74 261.357 427.968C261.753 428.184 262.209 428.292 262.725 428.292C263.169 428.292 263.577 428.214 263.949 428.058C264.333 427.902 264.657 427.674 264.921 427.374L266.181 428.652C265.761 429.144 265.251 429.516 264.651 429.768C264.051 430.02 263.415 430.146 262.743 430.146ZM270.993 430.056L267.303 421.326H269.481L272.001 427.734H271.371L274.035 421.326H276.231L272.217 430.056H270.993ZM268.419 433.566L271.101 428.04L272.217 430.056L270.615 433.566H268.419Z" fill="#1E1E1E"/>
<rect x="68" y="537.466" width="254" height="47" rx="7.5" fill="url(#paint0_linear_243_365)"/>
<rect x="68" y="537.466" width="254" height="47" rx="7.5" stroke="#001C60"/>
<g clip-path="url(#clip2_243_365)">
<path d="M117.714 563.938H118.774V564.025H119.291V563.766C119.291 562.626 120.218 561.699 121.359 561.699C122.499 561.699 123.427 562.626 123.427 563.766V564.025H123.944V563.938H135.044V564.025H135.561V563.766C135.561 562.626 136.489 561.699 137.629 561.699C138.769 561.699 139.697 562.626 139.697 563.766V564.025H140.214V563.938H141.286C141.343 563.938 141.397 563.915 141.437 563.875C141.477 563.835 141.5 563.78 141.5 563.724V563.345C141.5 563.288 141.477 563.234 141.437 563.194C141.397 563.154 141.343 563.131 141.286 563.131H141.146L141.2 562.132C141.212 561.921 141.157 561.712 141.044 561.534L140.444 560.588C140.319 560.391 140.128 560.242 139.906 560.169L137.041 559.222L131.459 557.02C130.168 556.511 128.795 556.294 127.424 556.381L121.247 556.776C121.084 556.786 120.929 556.849 120.804 556.955L118.643 558.79C118.551 558.868 118.48 558.966 118.434 559.077C118.387 559.188 118.368 559.308 118.378 559.428L118.446 560.308C118.455 560.421 118.439 560.535 118.398 560.64C118.357 560.746 118.292 560.842 118.21 560.919L118.044 561.075C117.963 561.151 117.9 561.243 117.859 561.346C117.818 561.448 117.8 561.558 117.806 561.669L117.884 563.131H117.714C117.657 563.131 117.603 563.154 117.563 563.194C117.523 563.234 117.5 563.288 117.5 563.345V563.724C117.5 563.78 117.523 563.835 117.563 563.875C117.603 563.915 117.657 563.938 117.714 563.938V563.938ZM128.461 559.76L128.483 559.476L129.684 559.572L129.661 559.855L128.461 559.76ZM122.642 558.912L122.681 558.63L123.874 558.798L123.834 559.08L122.642 558.912ZM127.384 558.89L127.034 558.866L125.193 558.582C125.474 558.398 125.66 558.081 125.66 557.72C125.66 557.413 125.524 557.136 125.31 556.948L127.31 556.82L127.384 558.89ZM123.836 558.373L122.627 558.187L122.495 557.128L123.859 557.041C123.693 557.228 123.602 557.47 123.602 557.72C123.602 557.958 123.685 558.189 123.836 558.373ZM128.016 556.793C128.556 556.793 129.092 556.843 129.62 556.94C129.25 557.095 128.99 557.461 128.99 557.888C128.99 558.456 129.45 558.917 130.018 558.917C130.587 558.917 131.047 558.456 131.047 557.888C131.047 557.656 130.969 557.43 130.824 557.249C130.984 557.302 131.143 557.359 131.301 557.421L134.522 558.692L135.083 559.432L128.146 558.944L127.817 556.796C127.883 556.795 127.95 556.793 128.016 556.793ZM121.083 557.283C121.137 557.237 121.204 557.21 121.274 557.206L122.14 557.15L122.168 558.116L120.678 557.886L120.523 557.759L121.083 557.283Z" fill="white"/>
<path d="M123.161 563.767C123.161 563.71 123.158 563.655 123.153 563.6C123.069 562.683 122.298 561.964 121.359 561.964C120.42 561.964 119.649 562.683 119.565 563.6C119.559 563.655 119.557 563.711 119.557 563.766C119.557 564.762 120.363 565.569 121.359 565.569C122.354 565.569 123.161 564.762 123.161 563.766V563.767ZM121.359 564.937C120.714 564.937 120.189 564.412 120.189 563.767C120.189 563.732 120.19 563.697 120.194 563.658C120.25 563.053 120.75 562.597 121.359 562.597C121.967 562.597 122.468 563.053 122.523 563.658C122.527 563.696 122.529 563.731 122.529 563.767C122.529 564.412 122.004 564.937 121.359 564.937Z" fill="white"/>
<path d="M121.897 563.767C121.897 563.751 121.896 563.734 121.894 563.715C121.869 563.438 121.638 563.229 121.359 563.229C121.079 563.229 120.849 563.438 120.824 563.716C120.822 563.735 120.821 563.752 120.821 563.767C120.821 564.063 121.062 564.304 121.359 564.304C121.655 564.304 121.897 564.063 121.897 563.767ZM139.431 563.767C139.431 563.71 139.428 563.655 139.423 563.6C139.339 562.683 138.568 561.964 137.629 561.964C136.69 561.964 135.919 562.683 135.835 563.6C135.83 563.655 135.827 563.711 135.827 563.766C135.827 564.762 136.634 565.569 137.629 565.569C138.624 565.569 139.431 564.762 139.431 563.766V563.767ZM137.629 564.937C136.984 564.937 136.459 564.412 136.459 563.767C136.459 563.732 136.461 563.697 136.464 563.658C136.52 563.053 137.021 562.597 137.629 562.597C138.237 562.597 138.738 563.053 138.794 563.658C138.797 563.696 138.799 563.731 138.799 563.767C138.799 564.412 138.274 564.937 137.629 564.937Z" fill="white"/>
<path d="M138.167 563.766C138.167 563.751 138.166 563.734 138.164 563.715C138.139 563.438 137.909 563.229 137.629 563.229C137.349 563.229 137.119 563.438 137.094 563.716C137.092 563.735 137.091 563.752 137.091 563.766C137.091 564.063 137.332 564.304 137.629 564.304C137.926 564.304 138.167 564.063 138.167 563.766H138.167Z" fill="white"/>
</g>
<path d="M154.884 562.84V560.644H157.62C157.968 560.644 158.286 560.572 158.574 560.428C158.862 560.284 159.09 560.074 159.258 559.798C159.426 559.522 159.51 559.186 159.51 558.79C159.51 558.406 159.426 558.076 159.258 557.8C159.09 557.524 158.862 557.314 158.574 557.17C158.286 557.026 157.968 556.954 157.62 556.954H154.884V554.758H158.034C158.838 554.758 159.564 554.92 160.212 555.244C160.86 555.568 161.37 556.036 161.742 556.648C162.126 557.248 162.318 557.962 162.318 558.79C162.318 559.618 162.126 560.338 161.742 560.95C161.37 561.55 160.86 562.018 160.212 562.354C159.564 562.678 158.838 562.84 158.034 562.84H154.884ZM152.724 567.466V554.758H155.55V567.466H152.724ZM167.06 567.646C166.256 567.646 165.536 567.448 164.9 567.052C164.276 566.656 163.778 566.116 163.406 565.432C163.046 564.748 162.866 563.968 162.866 563.092C162.866 562.216 163.046 561.436 163.406 560.752C163.778 560.068 164.276 559.528 164.9 559.132C165.536 558.736 166.256 558.538 167.06 558.538C167.648 558.538 168.176 558.652 168.644 558.88C169.124 559.108 169.514 559.426 169.814 559.834C170.114 560.23 170.282 560.686 170.318 561.202V564.982C170.282 565.498 170.114 565.96 169.814 566.368C169.526 566.764 169.142 567.076 168.662 567.304C168.182 567.532 167.648 567.646 167.06 567.646ZM167.618 565.162C168.206 565.162 168.68 564.97 169.04 564.586C169.4 564.19 169.58 563.692 169.58 563.092C169.58 562.684 169.496 562.324 169.328 562.012C169.172 561.7 168.944 561.46 168.644 561.292C168.356 561.112 168.02 561.022 167.636 561.022C167.252 561.022 166.91 561.112 166.61 561.292C166.322 561.46 166.088 561.7 165.908 562.012C165.74 562.324 165.656 562.684 165.656 563.092C165.656 563.488 165.74 563.842 165.908 564.154C166.076 564.466 166.31 564.712 166.61 564.892C166.91 565.072 167.246 565.162 167.618 565.162ZM169.472 567.466V565.108L169.886 562.984L169.472 560.86V558.718H172.172V567.466H169.472ZM177.297 567.682C176.781 567.682 176.271 567.616 175.767 567.484C175.275 567.352 174.813 567.166 174.381 566.926C173.961 566.674 173.601 566.386 173.301 566.062L174.867 564.478C175.155 564.79 175.497 565.036 175.893 565.216C176.289 565.384 176.721 565.468 177.189 565.468C177.513 565.468 177.759 565.42 177.927 565.324C178.107 565.228 178.197 565.096 178.197 564.928C178.197 564.712 178.089 564.55 177.873 564.442C177.669 564.322 177.405 564.22 177.081 564.136C176.757 564.04 176.415 563.938 176.055 563.83C175.695 563.722 175.353 563.572 175.029 563.38C174.705 563.188 174.441 562.924 174.237 562.588C174.033 562.24 173.931 561.802 173.931 561.274C173.931 560.71 174.075 560.224 174.363 559.816C174.651 559.396 175.059 559.066 175.587 558.826C176.115 558.586 176.733 558.466 177.441 558.466C178.185 558.466 178.869 558.598 179.493 558.862C180.129 559.114 180.645 559.492 181.041 559.996L179.475 561.58C179.199 561.256 178.887 561.028 178.539 560.896C178.203 560.764 177.873 560.698 177.549 560.698C177.237 560.698 177.003 560.746 176.847 560.842C176.691 560.926 176.613 561.052 176.613 561.22C176.613 561.4 176.715 561.544 176.919 561.652C177.123 561.76 177.387 561.856 177.711 561.94C178.035 562.024 178.377 562.126 178.737 562.246C179.097 562.366 179.439 562.528 179.763 562.732C180.087 562.936 180.351 563.212 180.555 563.56C180.759 563.896 180.861 564.34 180.861 564.892C180.861 565.744 180.537 566.422 179.889 566.926C179.253 567.43 178.389 567.682 177.297 567.682ZM185.541 567.682C185.025 567.682 184.515 567.616 184.011 567.484C183.519 567.352 183.057 567.166 182.625 566.926C182.205 566.674 181.845 566.386 181.545 566.062L183.111 564.478C183.399 564.79 183.741 565.036 184.137 565.216C184.533 565.384 184.965 565.468 185.433 565.468C185.757 565.468 186.003 565.42 186.171 565.324C186.351 565.228 186.441 565.096 186.441 564.928C186.441 564.712 186.333 564.55 186.117 564.442C185.913 564.322 185.649 564.22 185.325 564.136C185.001 564.04 184.659 563.938 184.299 563.83C183.939 563.722 183.597 563.572 183.273 563.38C182.949 563.188 182.685 562.924 182.481 562.588C182.277 562.24 182.175 561.802 182.175 561.274C182.175 560.71 182.319 560.224 182.607 559.816C182.895 559.396 183.303 559.066 183.831 558.826C184.359 558.586 184.977 558.466 185.685 558.466C186.429 558.466 187.113 558.598 187.737 558.862C188.373 559.114 188.889 559.492 189.285 559.996L187.719 561.58C187.443 561.256 187.131 561.028 186.783 560.896C186.447 560.764 186.117 560.698 185.793 560.698C185.481 560.698 185.247 560.746 185.091 560.842C184.935 560.926 184.857 561.052 184.857 561.22C184.857 561.4 184.959 561.544 185.163 561.652C185.367 561.76 185.631 561.856 185.955 561.94C186.279 562.024 186.621 562.126 186.981 562.246C187.341 562.366 187.683 562.528 188.007 562.732C188.331 562.936 188.595 563.212 188.799 563.56C189.003 563.896 189.105 564.34 189.105 564.892C189.105 565.744 188.781 566.422 188.133 566.926C187.497 567.43 186.633 567.682 185.541 567.682ZM194.919 567.664C193.971 567.664 193.125 567.472 192.381 567.088C191.649 566.692 191.073 566.146 190.653 565.45C190.233 564.754 190.023 563.968 190.023 563.092C190.023 562.216 190.227 561.436 190.635 560.752C191.055 560.056 191.619 559.51 192.327 559.114C193.035 558.718 193.833 558.52 194.721 558.52C195.585 558.52 196.347 558.706 197.007 559.078C197.667 559.45 198.183 559.966 198.555 560.626C198.939 561.286 199.131 562.042 199.131 562.894C199.131 563.05 199.119 563.218 199.095 563.398C199.083 563.566 199.053 563.764 199.005 563.992L191.463 564.01V562.12L197.835 562.102L196.647 562.894C196.635 562.39 196.557 561.976 196.413 561.652C196.269 561.316 196.053 561.064 195.765 560.896C195.489 560.716 195.147 560.626 194.739 560.626C194.307 560.626 193.929 560.728 193.605 560.932C193.293 561.124 193.047 561.4 192.867 561.76C192.699 562.12 192.615 562.558 192.615 563.074C192.615 563.59 192.705 564.034 192.885 564.406C193.077 564.766 193.341 565.048 193.677 565.252C194.025 565.444 194.433 565.54 194.901 565.54C195.333 565.54 195.723 565.468 196.071 565.324C196.419 565.168 196.725 564.94 196.989 564.64L198.501 566.152C198.069 566.656 197.547 567.034 196.935 567.286C196.323 567.538 195.651 567.664 194.919 567.664ZM206.238 567.466V562.48C206.238 562.024 206.094 561.658 205.806 561.382C205.53 561.094 205.176 560.95 204.744 560.95C204.444 560.95 204.18 561.016 203.952 561.148C203.724 561.268 203.544 561.448 203.412 561.688C203.28 561.916 203.214 562.18 203.214 562.48L202.152 561.958C202.152 561.274 202.302 560.674 202.602 560.158C202.902 559.642 203.316 559.246 203.844 558.97C204.384 558.682 204.99 558.538 205.662 558.538C206.31 558.538 206.88 558.694 207.372 559.006C207.876 559.306 208.272 559.708 208.56 560.212C208.848 560.716 208.992 561.268 208.992 561.868V567.466H206.238ZM200.46 567.466V558.718H203.214V567.466H200.46ZM214.469 571.39C213.509 571.39 212.663 571.222 211.931 570.886C211.211 570.562 210.641 570.1 210.221 569.5L211.913 567.808C212.225 568.18 212.573 568.462 212.957 568.654C213.353 568.846 213.827 568.942 214.379 568.942C215.063 568.942 215.597 568.774 215.981 568.438C216.377 568.102 216.575 567.628 216.575 567.016V564.784L217.043 562.876L216.629 560.968V558.718H219.329V566.944C219.329 567.844 219.119 568.624 218.699 569.284C218.279 569.944 217.703 570.46 216.971 570.832C216.239 571.204 215.405 571.39 214.469 571.39ZM214.343 567.196C213.539 567.196 212.825 567.004 212.201 566.62C211.577 566.236 211.085 565.714 210.725 565.054C210.365 564.394 210.185 563.662 210.185 562.858C210.185 562.042 210.365 561.31 210.725 560.662C211.085 560.002 211.577 559.486 212.201 559.114C212.825 558.73 213.539 558.538 214.343 558.538C214.943 558.538 215.477 558.652 215.945 558.88C216.425 559.096 216.809 559.408 217.097 559.816C217.397 560.212 217.565 560.674 217.601 561.202V564.532C217.565 565.048 217.397 565.51 217.097 565.918C216.809 566.314 216.425 566.626 215.945 566.854C215.465 567.082 214.931 567.196 214.343 567.196ZM214.865 564.748C215.249 564.748 215.579 564.664 215.855 564.496C216.143 564.328 216.359 564.106 216.503 563.83C216.659 563.542 216.737 563.218 216.737 562.858C216.737 562.498 216.659 562.174 216.503 561.886C216.359 561.598 216.143 561.37 215.855 561.202C215.579 561.034 215.249 560.95 214.865 560.95C214.493 560.95 214.163 561.034 213.875 561.202C213.587 561.37 213.365 561.598 213.209 561.886C213.053 562.174 212.975 562.498 212.975 562.858C212.975 563.194 213.053 563.512 213.209 563.812C213.365 564.1 213.581 564.328 213.857 564.496C214.145 564.664 214.481 564.748 214.865 564.748ZM225.593 567.664C224.645 567.664 223.799 567.472 223.055 567.088C222.323 566.692 221.747 566.146 221.327 565.45C220.907 564.754 220.697 563.968 220.697 563.092C220.697 562.216 220.901 561.436 221.309 560.752C221.729 560.056 222.293 559.51 223.001 559.114C223.709 558.718 224.507 558.52 225.395 558.52C226.259 558.52 227.021 558.706 227.681 559.078C228.341 559.45 228.857 559.966 229.229 560.626C229.613 561.286 229.805 562.042 229.805 562.894C229.805 563.05 229.793 563.218 229.769 563.398C229.757 563.566 229.727 563.764 229.679 563.992L222.137 564.01V562.12L228.509 562.102L227.321 562.894C227.309 562.39 227.231 561.976 227.087 561.652C226.943 561.316 226.727 561.064 226.439 560.896C226.163 560.716 225.821 560.626 225.413 560.626C224.981 560.626 224.603 560.728 224.279 560.932C223.967 561.124 223.721 561.4 223.541 561.76C223.373 562.12 223.289 562.558 223.289 563.074C223.289 563.59 223.379 564.034 223.559 564.406C223.751 564.766 224.015 565.048 224.351 565.252C224.699 565.444 225.107 565.54 225.575 565.54C226.007 565.54 226.397 565.468 226.745 565.324C227.093 565.168 227.399 564.94 227.663 564.64L229.175 566.152C228.743 566.656 228.221 567.034 227.609 567.286C226.997 567.538 226.325 567.664 225.593 567.664ZM231.134 567.466V558.718H233.888V567.466H231.134ZM233.888 562.66L232.736 561.76C232.964 560.74 233.348 559.948 233.888 559.384C234.428 558.82 235.178 558.538 236.138 558.538C236.558 558.538 236.924 558.604 237.236 558.736C237.56 558.856 237.842 559.048 238.082 559.312L236.444 561.382C236.324 561.25 236.174 561.148 235.994 561.076C235.814 561.004 235.61 560.968 235.382 560.968C234.926 560.968 234.56 561.112 234.284 561.4C234.02 561.676 233.888 562.096 233.888 562.66Z" fill="white"/>
<path d="M254.667 560.966H266.333M266.333 560.966L260.5 566.799M266.333 560.966L260.5 555.132" stroke="white" stroke-width="1.67" stroke-linecap="round" stroke-linejoin="round"/>
<rect x="68" y="605.466" width="254" height="47" rx="7.5" fill="url(#paint1_linear_243_365)"/>
<rect x="68" y="605.466" width="254" height="47" rx="7.5" stroke="#C53C09"/>
<g clip-path="url(#clip3_243_365)">
<path d="M147.871 632.542H140.577C140.523 632.542 140.47 632.555 140.422 632.581C140.375 632.606 140.334 632.643 140.304 632.688C140.274 632.733 140.256 632.785 140.25 632.839C140.245 632.892 140.253 632.947 140.274 632.997L141.21 635.233C141.235 635.293 141.277 635.344 141.331 635.38C141.385 635.415 141.448 635.434 141.513 635.435H146.935C147 635.434 147.063 635.415 147.117 635.38C147.171 635.344 147.213 635.293 147.238 635.233L148.173 632.997C148.194 632.947 148.203 632.892 148.197 632.839C148.192 632.785 148.174 632.733 148.144 632.688C148.114 632.643 148.073 632.606 148.026 632.581C147.978 632.555 147.925 632.542 147.871 632.542ZM146.717 634.778H141.731L141.07 633.198H147.378L146.717 634.778ZM139.108 631.947L136.651 631.382C136.603 631.371 136.553 631.371 136.505 631.382C136.457 631.393 136.412 631.415 136.373 631.445C136.335 631.476 136.303 631.515 136.282 631.56C136.261 631.604 136.249 631.653 136.249 631.702V632.603C136.249 632.67 136.27 632.736 136.309 632.791C136.348 632.847 136.402 632.889 136.466 632.912L138.908 633.797C138.957 633.814 139.01 633.82 139.062 633.813C139.114 633.807 139.164 633.788 139.207 633.758C139.25 633.728 139.285 633.688 139.31 633.642C139.334 633.596 139.347 633.544 139.348 633.492L139.363 632.271C139.364 632.196 139.339 632.123 139.292 632.064C139.246 632.005 139.181 631.964 139.108 631.947ZM138.697 633.022L136.906 632.373V632.114L138.703 632.527L138.697 633.022ZM156.377 624.964H156.077C156.506 624.564 156.815 623.985 156.924 623.319C157.203 623.056 157.407 622.645 157.545 622.068C157.547 622.061 157.549 622.054 157.55 622.047C157.678 621.297 157.524 620.623 157.102 620.098C156.61 619.486 155.767 619.107 154.788 619.059C153.225 618.983 152.165 619.904 151.806 620.852C151.468 621.748 151.704 622.653 152.437 623.298C152.544 623.972 152.854 624.56 153.288 624.964H152.876C151.921 624.964 151.112 625.602 150.852 626.474L150.424 625.827C150.084 625.313 149.536 625.019 148.92 625.019H146.782C146.89 624.617 146.945 624.204 146.945 623.788C146.945 621.181 144.822 619.059 142.214 619.059C139.607 619.059 137.485 621.181 137.485 623.788C137.485 624.544 137.664 625.258 137.98 625.893L136.694 627.834H135.333C134.881 627.834 134.513 628.203 134.513 628.655C134.513 629.107 134.881 629.475 135.333 629.475H135.599L134.933 630.459L134.934 630.459C134.892 630.52 134.873 630.593 134.878 630.666L135.289 636.606V637.571C135.289 638.291 135.874 638.876 136.594 638.876H138.318C139.038 638.876 139.623 638.291 139.623 637.571V636.923H148.825V637.571C148.825 638.291 149.41 638.876 150.13 638.876H151.854C152.035 638.876 152.211 638.838 152.372 638.768C152.403 638.802 152.44 638.829 152.482 638.848C152.523 638.866 152.569 638.876 152.614 638.876H156.574C156.661 638.876 156.744 638.841 156.806 638.78C156.867 638.718 156.902 638.635 156.902 638.548V632.504C157.824 632.268 158.487 631.435 158.487 630.46V627.074C158.487 625.911 157.541 624.964 156.377 624.964ZM154.472 625.527C154.542 625.535 154.612 625.539 154.683 625.539C154.754 625.539 154.824 625.535 154.893 625.527L155.104 627.803L154.683 628.388L154.262 627.803L154.472 625.527ZM152.42 621.085C152.683 620.388 153.457 619.711 154.608 619.711C154.657 619.711 154.706 619.713 154.756 619.715C155.548 619.753 156.216 620.043 156.591 620.509C156.893 620.886 156.999 621.363 156.905 621.926C156.895 621.966 156.885 622.006 156.874 622.046C156.777 621.519 156.586 621.115 156.298 620.825C156.266 620.793 156.228 620.768 156.186 620.751C156.145 620.735 156.1 620.727 156.055 620.728C156.01 620.73 155.966 620.74 155.925 620.759C155.884 620.779 155.848 620.806 155.818 620.84C155.347 621.377 154.696 621.417 154.067 621.456C153.51 621.491 152.985 621.523 152.657 621.919C152.571 622.022 152.506 622.144 152.462 622.286C152.279 621.919 152.261 621.505 152.42 621.085ZM153.053 622.78C153.053 622.736 153.053 622.695 153.055 622.657V622.654C153.068 622.514 153.104 622.408 153.162 622.338C153.309 622.161 153.679 622.138 154.108 622.111C154.702 622.074 155.421 622.03 156.025 621.548C156.22 621.9 156.307 622.42 156.29 623.124C156.185 623.945 155.71 624.607 155.094 624.815C155.09 624.816 155.085 624.818 155.081 624.819C154.952 624.861 154.818 624.883 154.683 624.883C154.544 624.883 154.408 624.86 154.279 624.818C154.277 624.817 154.275 624.816 154.273 624.816C153.572 624.581 153.053 623.757 153.053 622.78ZM151.541 632.115V632.373L149.75 633.022L149.744 632.527L151.541 632.115ZM149.339 631.947C149.265 631.964 149.2 632.005 149.154 632.064C149.108 632.123 149.083 632.196 149.084 632.271L149.1 633.492C149.101 633.579 149.136 633.661 149.197 633.722C149.259 633.782 149.342 633.816 149.428 633.816C149.466 633.816 149.503 633.81 149.54 633.796L151.981 632.911C152.044 632.888 152.099 632.847 152.138 632.791C152.176 632.736 152.197 632.67 152.197 632.603V632.456C152.226 632.467 152.256 632.476 152.286 632.485V636.266H135.923L135.557 630.971H150.829C150.881 631.175 150.963 631.37 151.073 631.549L149.339 631.947ZM142.214 619.715C144.461 619.715 146.288 621.542 146.288 623.788C146.288 626.034 144.461 627.861 142.214 627.861C139.969 627.861 138.142 626.034 138.142 623.788C138.142 621.542 139.969 619.715 142.214 619.715ZM142.214 628.517C144.152 628.517 145.821 627.346 146.551 625.675H148.92C149.317 625.675 149.657 625.858 149.877 626.19L150.765 627.53V630.315H135.823L136.491 629.328L138.354 626.517C139.211 627.726 140.622 628.517 142.214 628.517ZM135.169 628.655C135.169 628.566 135.244 628.49 135.333 628.49H136.259L136.041 628.819H135.333C135.244 628.819 135.169 628.744 135.169 628.655ZM138.967 637.571C138.967 637.929 138.676 638.219 138.318 638.219H136.594C136.236 638.219 135.945 637.929 135.945 637.571V636.923H138.967V637.571ZM150.13 638.219C149.772 638.219 149.481 637.929 149.481 637.571V636.923H152.286V638.052C152.168 638.159 152.016 638.219 151.854 638.219H150.13ZM156.246 638.219H154.975L154.929 634.34C154.927 634.158 154.78 634.014 154.597 634.015C154.51 634.016 154.427 634.052 154.366 634.114C154.305 634.177 154.272 634.26 154.273 634.348L154.319 638.219H152.942V631.81H156.246V638.219H156.246ZM157.831 630.46C157.831 631.072 157.451 631.603 156.902 631.815V628.52C156.902 628.433 156.868 628.349 156.806 628.288C156.744 628.226 156.661 628.192 156.574 628.192C156.487 628.192 156.403 628.226 156.342 628.288C156.28 628.349 156.246 628.433 156.246 628.52V631.153H152.942V628.52C152.942 628.433 152.908 628.349 152.846 628.288C152.785 628.226 152.701 628.192 152.614 628.192C152.527 628.192 152.444 628.226 152.382 628.288C152.321 628.349 152.286 628.433 152.286 628.52V631.787C151.774 631.558 151.421 631.041 151.421 630.46V627.074C151.421 626.273 152.074 625.62 152.876 625.62H153.805L153.598 627.865C153.59 627.944 153.612 628.023 153.658 628.087L154.417 629.142C154.447 629.184 154.487 629.219 154.533 629.242C154.58 629.266 154.631 629.278 154.683 629.278C154.735 629.278 154.787 629.266 154.833 629.242C154.879 629.219 154.919 629.184 154.95 629.142L155.708 628.087C155.755 628.023 155.776 627.944 155.769 627.865L155.561 625.62H156.377C157.179 625.62 157.831 626.273 157.831 627.074V630.46H157.831ZM143.218 625.063C143.305 624.964 143.355 624.821 143.355 624.672C143.355 624.415 143.213 624.116 142.812 624.116H141.616C140.83 624.116 140.418 623.507 140.418 622.904C140.418 622.593 140.524 622.301 140.717 622.081C140.936 621.83 141.255 621.693 141.616 621.693H141.886V621.028C141.886 620.941 141.921 620.858 141.982 620.796C142.044 620.735 142.127 620.7 142.214 620.7C142.301 620.7 142.385 620.735 142.446 620.796C142.508 620.858 142.542 620.941 142.542 621.028V621.693H143.684C143.771 621.693 143.854 621.727 143.916 621.789C143.977 621.85 144.012 621.934 144.012 622.021C144.012 622.108 143.977 622.191 143.916 622.253C143.854 622.314 143.771 622.349 143.684 622.349H141.616C141.442 622.349 141.306 622.404 141.211 622.513C141.124 622.612 141.075 622.755 141.075 622.904C141.075 623.161 141.216 623.46 141.616 623.46H142.812C143.599 623.46 144.011 624.07 144.011 624.672C144.011 624.983 143.905 625.275 143.712 625.496C143.493 625.746 143.173 625.884 142.812 625.884H142.542V626.548C142.542 626.635 142.508 626.718 142.446 626.78C142.385 626.842 142.301 626.876 142.214 626.876C142.127 626.876 142.044 626.842 141.982 626.78C141.921 626.718 141.886 626.635 141.886 626.548V625.883H140.746C140.659 625.883 140.575 625.849 140.514 625.787C140.452 625.726 140.418 625.642 140.418 625.555C140.418 625.468 140.452 625.385 140.514 625.323C140.575 625.262 140.659 625.227 140.746 625.227H142.812C142.986 625.227 143.123 625.172 143.218 625.063Z" fill="white"/>
</g>
<path d="M171.47 635.466V633.288H174.692C175.508 633.288 176.222 633.12 176.834 632.784C177.446 632.436 177.92 631.95 178.256 631.326C178.604 630.702 178.778 629.964 178.778 629.112C178.778 628.284 178.604 627.564 178.256 626.952C177.908 626.328 177.428 625.848 176.816 625.512C176.204 625.164 175.496 624.99 174.692 624.99H171.416V622.812H174.728C175.664 622.812 176.528 622.968 177.32 623.28C178.124 623.592 178.82 624.036 179.408 624.612C180.008 625.176 180.47 625.842 180.794 626.61C181.13 627.378 181.298 628.218 181.298 629.13C181.298 630.042 181.13 630.888 180.794 631.668C180.47 632.436 180.014 633.108 179.426 633.684C178.838 634.248 178.142 634.686 177.338 634.998C176.546 635.31 175.688 635.466 174.764 635.466H171.47ZM169.796 635.466V622.812H172.244V635.466H169.796ZM183.351 635.466V626.772H185.709V635.466H183.351ZM185.709 630.66L184.791 630.048C184.899 628.98 185.211 628.14 185.727 627.528C186.243 626.904 186.987 626.592 187.959 626.592C188.379 626.592 188.757 626.664 189.093 626.808C189.429 626.94 189.735 627.162 190.011 627.474L188.535 629.166C188.403 629.022 188.241 628.914 188.049 628.842C187.869 628.77 187.659 628.734 187.419 628.734C186.915 628.734 186.501 628.896 186.177 629.22C185.865 629.532 185.709 630.012 185.709 630.66ZM191.2 635.466V626.772H193.576V635.466H191.2ZM192.388 625.368C192.004 625.368 191.686 625.242 191.434 624.99C191.182 624.726 191.056 624.402 191.056 624.018C191.056 623.646 191.182 623.328 191.434 623.064C191.686 622.8 192.004 622.668 192.388 622.668C192.784 622.668 193.102 622.8 193.342 623.064C193.594 623.328 193.72 623.646 193.72 624.018C193.72 624.402 193.594 624.726 193.342 624.99C193.102 625.242 192.784 625.368 192.388 625.368ZM198.85 635.466L195.016 626.772H197.608L200.362 633.936H199.084L201.856 626.772H204.358L200.542 635.466H198.85ZM209.701 635.646C208.789 635.646 207.979 635.454 207.271 635.07C206.563 634.674 205.999 634.134 205.579 633.45C205.171 632.766 204.967 631.986 204.967 631.11C204.967 630.246 205.165 629.478 205.561 628.806C205.969 628.122 206.521 627.582 207.217 627.186C207.913 626.778 208.687 626.574 209.539 626.574C210.379 626.574 211.117 626.766 211.753 627.15C212.401 627.522 212.905 628.038 213.265 628.698C213.637 629.346 213.823 630.084 213.823 630.912C213.823 631.068 213.811 631.23 213.787 631.398C213.775 631.554 213.745 631.734 213.697 631.938L206.389 631.956V630.192L212.599 630.174L211.645 630.912C211.621 630.396 211.525 629.964 211.357 629.616C211.201 629.268 210.967 629.004 210.655 628.824C210.355 628.632 209.983 628.536 209.539 628.536C209.071 628.536 208.663 628.644 208.315 628.86C207.967 629.064 207.697 629.358 207.505 629.742C207.325 630.114 207.235 630.558 207.235 631.074C207.235 631.602 207.331 632.064 207.523 632.46C207.727 632.844 208.015 633.144 208.387 633.36C208.759 633.564 209.191 633.666 209.683 633.666C210.127 633.666 210.529 633.594 210.889 633.45C211.249 633.294 211.561 633.066 211.825 632.766L213.211 634.152C212.791 634.644 212.275 635.016 211.663 635.268C211.063 635.52 210.409 635.646 209.701 635.646ZM215.641 635.466V626.772H217.999V635.466H215.641ZM217.999 630.66L217.081 630.048C217.189 628.98 217.501 628.14 218.017 627.528C218.533 626.904 219.277 626.592 220.249 626.592C220.669 626.592 221.047 626.664 221.383 626.808C221.719 626.94 222.025 627.162 222.301 627.474L220.825 629.166C220.693 629.022 220.531 628.914 220.339 628.842C220.159 628.77 219.949 628.734 219.709 628.734C219.205 628.734 218.791 628.896 218.467 629.22C218.155 629.532 217.999 630.012 217.999 630.66Z" fill="white"/>
<path d="M238.667 628.966H250.333M250.333 628.966L244.5 634.799M250.333 628.966L244.5 623.132" stroke="white" stroke-width="1.67" stroke-linecap="round" stroke-linejoin="round"/>
</g>
</g>
<defs>
<filter id="filter0_d_243_365" x="124.017" y="187" width="141.966" height="141.966" filterUnits="userSpaceOnUse" color-interpolation-filters="sRGB">
<feFlood flood-opacity="0" result="BackgroundImageFix"/>
<feColorMatrix in="SourceAlpha" type="matrix" values="0 0 0 0 0 0 0 0 0 0 0 0 0 0 0 0 0 0 127 0" result="hardAlpha"/>
<feOffset/>
<feGaussianBlur stdDeviation="2"/>
<feComposite in2="hardAlpha" operator="out"/>
<feColorMatrix type="matrix" values="0 0 0 0 0.0117647 0 0 0 0 0.247059 0 0 0 0 0.811765 0 0 0 0.3 0"/>
<feBlend mode="normal" in2="BackgroundImageFix" result="effect1_dropShadow_243_365"/>
<feBlend mode="normal" in="SourceGraphic" in2="effect1_dropShadow_243_365" result="shape"/>
</filter>
<linearGradient id="paint0_linear_243_365" x1="67.5" y1="560.966" x2="322.5" y2="560.966" gradientUnits="userSpaceOnUse">
<stop stop-color="#01308D"/>
<stop offset="1" stop-color="#051A3F"/>
</linearGradient>
<linearGradient id="paint1_linear_243_365" x1="322.5" y1="628.966" x2="67.5" y2="628.966" gradientUnits="userSpaceOnUse">
<stop stop-color="#FD6D12"/>
<stop offset="1" stop-color="#EE5208"/>
</linearGradient>
<clipPath id="clip0_243_365">
<rect width="390" height="844" rx="30" fill="white"/>
</clipPath>
<clipPath id="clip1_243_365">
<rect width="390" height="844" fill="white"/>
</clipPath>
<clipPath id="clip2_243_365">
<rect width="24" height="24" fill="white" transform="translate(117.5 548.966)"/>
</clipPath>
<clipPath id="clip3_243_365">
<rect width="24" height="24" fill="white" transform="translate(134.5 616.966)"/>
</clipPath>
</defs>
</svg>
